<svg width="22" height="22" viewBox="0 0 22 22" fill="none" xmlns="http://www.w3.org/2000/svg">
<path d="M13.8621 1.1385C14.5923 0.327231 15.6476 -0.191941 16.7078 0.0672069C19.2794 0.696055 21.3035 2.72031 21.9324 5.29182C22.1917 6.35194 21.6733 7.40734 20.8621 8.13752C19.1626 9.66705 19.1626 12.3326 20.8621 13.8621C21.6733 14.5923 22.1917 15.6477 21.9324 16.7078C21.3036 19.2794 19.2794 21.3036 16.7078 21.9324C15.6477 22.1916 14.5923 21.6732 13.8621 20.8621C12.3326 19.1627 9.66804 19.1627 8.1385 20.8621C7.4083 21.6735 6.35211 22.1917 5.29182 21.9324C2.72029 21.3035 0.696057 19.2794 0.0672061 16.7078C-0.192007 15.6476 0.327198 14.5923 1.1385 13.8621C2.83791 12.3326 2.83796 9.66703 1.1385 8.13752C0.327177 7.40733 -0.192078 6.35209 0.0672061 5.29182C0.696079 2.72031 2.72029 0.696086 5.29182 0.0672069C6.35211 -0.192078 7.4083 0.327171 8.1385 1.1385C9.66806 2.83749 12.3327 2.8377 13.8621 1.1385ZM12.3836 11.1619C11.6982 11.1622 11.1424 11.7105 11.1424 12.3865C11.1424 12.475 11.0699 12.5467 10.9803 12.5467H10.9237C10.834 12.5467 10.7616 12.4749 10.7615 12.3865V12.1688C10.7615 11.613 10.3045 11.1619 9.74103 11.1619C9.62868 11.162 9.52068 11.2066 9.44123 11.285L7.16779 13.5272C7.081 13.6134 7.14308 13.7606 7.26642 13.7606H9.30549C9.45862 13.7606 9.58283 13.883 9.58283 14.034V16.0115C9.58319 16.1329 9.73187 16.1936 9.81916 16.1082L14.6531 11.3397C14.7196 11.274 14.6729 11.1621 14.5789 11.1619H12.3836ZM12.3553 6.03986C12.3553 5.91804 12.2063 5.85704 12.119 5.94318L7.28498 10.7108C7.21868 10.7765 7.26608 10.8885 7.36017 10.8885H9.55451C10.2401 10.8885 10.7957 10.3401 10.7957 9.66389C10.7959 9.57561 10.8693 9.50373 10.9588 9.50373H11.0154C11.1048 9.50399 11.1774 9.57577 11.1776 9.66389V9.88264C11.1777 10.4381 11.6339 10.8883 12.1971 10.8885C12.3094 10.8885 12.4174 10.8447 12.4969 10.7664L14.7703 8.52424C14.8576 8.43813 14.7961 8.29097 14.6727 8.29084H12.6326C12.4798 8.29064 12.3555 8.16815 12.3553 8.0174V6.03986Z" fill="white"/>
</svg>
